<svg width="21" height="20" viewBox="0 0 21 20" fill="none" xmlns="http://www.w3.org/2000/svg">
<path d="M6.13524 6.37257C6.13524 3.77358 8.26723 1.66669 10.8972 1.66669C13.3469 1.66669 15.3646 3.49478 15.6296 5.84584C17.4945 6.48355 18.8337 8.2343 18.8337 10.2941C18.8337 11.1767 18.5878 12.0025 18.1601 12.7084H18.8337C19.1788 12.7084 19.4587 12.9882 19.4587 13.3334C19.4587 13.6785 19.1788 13.9584 18.8337 13.9584H2.16699C1.82182 13.9584 1.54199 13.6785 1.54199 13.3334C1.54199 12.9882 1.82182 12.7084 2.16699 12.7084H2.39278C2.24681 12.3232 2.16699 11.9061 2.16699 11.4706C2.16699 9.52135 3.76598 7.9412 5.73842 7.9412C5.97518 7.9412 6.20658 7.96396 6.43046 8.00741C6.23954 7.49819 6.13524 6.94741 6.13524 6.37257Z" fill="#EBECF1"/>
<path d="M4.66699 15.2083C4.32182 15.2083 4.04199 15.4881 4.04199 15.8333C4.04199 16.1785 4.32182 16.4583 4.66699 16.4583H16.3337C16.6788 16.4583 16.9587 16.1785 16.9587 15.8333C16.9587 15.4881 16.6788 15.2083 16.3337 15.2083H4.66699Z" fill="#EBECF1"/>
<path d="M7.16699 17.7083C6.82182 17.7083 6.54199 17.9881 6.54199 18.3333C6.54199 18.6785 6.82182 18.9583 7.16699 18.9583H13.8337C14.1788 18.9583 14.4587 18.6785 14.4587 18.3333C14.4587 17.9881 14.1788 17.7083 13.8337 17.7083H7.16699Z" fill="#EBECF1"/>
</svg>
